<?xml version="1.0" standalone="no"?>
<!DOCTYPE svg PUBLIC "-//W3C//DTD SVG 20010904//EN"
 "http://www.w3.org/TR/2001/REC-SVG-20010904/DTD/svg10.dtd">
<svg version="1.0" xmlns="http://www.w3.org/2000/svg"
 width="640.000000pt" height="640.000000pt" viewBox="0 0 640.000000 640.000000"
 preserveAspectRatio="xMidYMid meet">
<metadata>
Created by potrace 1.16, written by Peter Selinger 2001-2019
</metadata>
<g transform="translate(0.000000,640.000000) scale(0.100000,-0.100000)"
fill="#000000" stroke="none">
<path d="M4665 5121 c-16 -10 -42 -31 -56 -47 -33 -36 -109 -144 -109 -156 0
-22 53 -2 128 48 98 67 124 97 120 138 -2 25 -8 32 -28 34 -14 1 -38 -6 -55
-17z"/>
<path d="M4099 5082 c-17 -3 -46 -78 -83 -221 -14 -51 -28 -96 -31 -99 -3 -3
-46 -8 -96 -12 -62 -5 -94 -11 -100 -21 -14 -22 -10 -75 6 -89 8 -7 15 -18 15
-24 0 -6 15 -19 33 -29 17 -10 45 -29 61 -43 l29 -25 -41 -161 c-39 -149 -95
-299 -108 -285 -3 3 6 46 20 96 32 110 41 168 32 213 -6 36 -126 181 -168 205
-33 18 -97 15 -145 -6 -23 -11 -65 -42 -94 -70 -29 -28 -55 -51 -58 -51 -3 0
-19 14 -35 30 -15 16 -41 32 -56 35 -32 7 -106 -10 -116 -26 -3 -6 -8 -47 -10
-92 -8 -147 -84 -424 -134 -487 l-20 -25 6 45 c4 25 22 97 41 160 18 63 36
141 40 172 l6 57 -34 39 c-19 21 -46 53 -61 70 l-26 32 -39 0 c-49 0 -85 -19
-101 -52 l-13 -27 -47 25 -47 26 -54 -6 c-29 -2 -77 -16 -106 -31 -76 -37
-165 -136 -214 -238 -55 -114 -74 -194 -75 -307 l0 -95 23 -52 c16 -36 42 -69
85 -106 87 -77 123 -97 175 -97 62 0 121 32 180 96 30 33 52 50 57 43 3 -6 27
-24 52 -40 56 -35 108 -38 169 -8 23 11 52 34 63 49 l21 29 33 -23 c25 -16 46
-22 85 -21 73 2 86 19 117 151 15 60 37 153 49 206 25 106 67 208 95 233 l17
16 -23 -98 c-28 -113 -31 -225 -9 -280 15 -38 82 -103 146 -142 76 -47 178
-10 251 90 23 33 47 59 52 59 5 0 32 -17 60 -39 28 -21 61 -44 73 -50 31 -16
87 -14 131 4 80 34 118 71 208 203 1 2 33 -21 71 -52 37 -30 91 -68 118 -83
l50 -28 85 0 85 0 58 29 c65 33 154 121 188 186 12 25 37 83 53 129 l31 84 70
25 c86 30 143 68 178 119 31 45 35 96 11 133 -28 42 -107 120 -122 120 -7 0
-30 -19 -50 -42 -48 -54 -83 -88 -92 -88 -4 0 -15 21 -25 46 -23 60 -149 186
-210 210 -65 24 -174 16 -245 -20 -30 -15 -64 -36 -76 -47 l-21 -19 -59 59
c-45 46 -65 59 -81 55 l-20 -6 5 50 4 50 -53 58 c-30 33 -63 72 -75 88 l-20
28 -65 7 c-35 3 -71 5 -80 3z m326 -559 c-29 -70 -47 -121 -61 -180 -10 -37
-26 -79 -37 -93 -10 -14 -36 -52 -57 -86 -21 -33 -52 -71 -70 -84 l-33 -24 6
70 c4 38 22 123 42 188 19 66 38 141 41 166 l6 47 71 1 c38 1 72 4 75 7 12 12
24 4 17 -12z m342 -202 c18 -14 33 -32 33 -40 0 -7 -14 -40 -32 -73 -31 -58
-93 -122 -110 -112 -13 8 -9 56 11 135 27 106 39 132 53 123 7 -4 28 -19 45
-33z m-2037 -265 c-27 -88 -82 -206 -108 -229 l-19 -18 -7 39 c-12 78 53 261
121 343 l28 33 3 -48 c2 -29 -5 -77 -18 -120z"/>
<path d="M4885 4996 c-63 -14 -208 -61 -234 -76 l-16 -8 27 -7 c15 -4 32 -4
37 0 6 3 95 10 197 15 l187 9 21 20 c16 17 18 25 10 39 -9 13 -27 17 -90 19
-43 1 -106 -4 -139 -11z"/>
<path d="M2745 4971 c-97 -24 -175 -98 -175 -166 0 -62 72 -109 127 -83 37 17
41 53 12 84 -18 20 -21 29 -13 42 34 53 149 74 201 36 56 -42 44 -94 -43 -184
-35 -37 -64 -72 -64 -78 0 -23 132 -14 222 14 95 30 128 48 128 70 0 21 -38
15 -139 -20 -40 -14 -78 -26 -82 -26 -5 0 7 22 26 49 69 95 76 142 32 205 -38
55 -139 79 -232 57z"/>
<path d="M1896 4929 c-129 -31 -268 -143 -324 -261 -41 -85 -58 -187 -44 -266
20 -114 59 -180 231 -391 33 -41 78 -107 98 -145 l38 -71 0 -85 0 -85 -27 -50
c-55 -104 -137 -155 -248 -155 -43 0 -64 5 -83 21 -33 25 -51 88 -44 154 6 61
46 148 64 141 7 -3 13 0 14 7 0 7 6 -7 12 -30 10 -34 23 -51 66 -83 30 -22 63
-40 73 -40 22 0 56 32 68 66 16 40 11 105 -10 152 -20 44 -128 165 -165 185
-62 33 -164 25 -247 -20 -65 -35 -153 -130 -186 -200 l-27 -58 0 -110 0 -110
32 -65 c18 -37 53 -85 80 -111 74 -70 229 -166 298 -184 120 -31 252 -13 385
53 106 52 224 169 273 272 48 98 62 187 46 289 -22 148 -74 253 -206 419 -47
59 -98 134 -114 167 -61 127 -21 238 112 305 58 30 69 27 69 -22 0 -50 -33
-123 -65 -144 -13 -8 -28 -28 -35 -43 l-12 -29 16 -30 c8 -16 30 -35 48 -43
18 -7 55 -28 82 -46 27 -19 61 -33 78 -33 89 0 182 119 203 262 9 59 -16 157
-57 220 -38 61 -137 151 -197 180 l-46 23 -105 2 c-58 1 -123 -2 -144 -8z"/>
<path d="M5073 3719 c-38 -11 -63 -43 -63 -79 0 -32 17 -50 48 -50 16 0 26 7
29 20 8 30 37 21 41 -13 5 -37 -45 -87 -87 -87 -17 0 -75 24 -135 55 l-106 56
-63 6 c-85 8 -188 -11 -264 -48 -57 -27 -113 -77 -113 -100 0 -15 37 -10 77
11 21 11 72 26 114 35 108 22 206 10 291 -38 35 -19 89 -43 120 -52 119 -34
216 17 248 129 l13 47 -18 39 c-30 66 -69 86 -132 69z"/>
<path d="M3899 3635 c-14 -7 -30 -24 -36 -37 -11 -25 -45 -136 -63 -205 -6
-24 -13 -43 -15 -43 -2 0 -39 15 -82 32 l-78 33 -115 0 -115 0 -48 -25 c-90
-46 -144 -138 -115 -197 20 -41 61 -66 109 -66 32 0 47 6 61 23 10 12 18 33
18 46 0 27 -32 64 -55 64 -25 0 0 35 35 50 48 20 161 7 265 -31 50 -17 91 -33
93 -35 4 -3 -38 -215 -44 -226 -3 -4 -21 0 -40 8 -46 19 -102 11 -167 -24 -63
-34 -124 -102 -171 -191 -59 -112 -74 -167 -102 -358 -3 -17 -14 -42 -25 -55
l-20 -23 7 50 c3 28 24 119 46 204 21 85 37 164 34 175 -3 12 -31 47 -62 79
-45 45 -62 57 -88 57 -33 0 -78 -25 -100 -55 l-13 -19 -28 22 c-35 28 -113 29
-170 3 -53 -24 -113 -74 -145 -118 l-25 -36 -8 54 c-11 79 -47 144 -126 230
-49 53 -86 83 -123 100 l-53 24 -145 0 -145 0 -80 -23 c-103 -30 -250 -99
-330 -157 -177 -126 -267 -302 -235 -460 l12 -60 67 -66 c87 -86 120 -103 199
-103 l64 -1 24 28 c41 48 28 111 -35 171 -19 19 -31 40 -31 56 0 78 79 201
165 258 27 18 52 32 56 32 4 0 -3 -26 -16 -58 -29 -73 -46 -139 -84 -331 -17
-85 -42 -191 -55 -235 -13 -45 -38 -135 -54 -201 -40 -158 -68 -230 -99 -255
-36 -28 -56 -25 -77 13 -37 64 -81 116 -99 117 -27 0 -73 -26 -96 -56 -28 -36
-27 -99 2 -155 27 -51 120 -131 192 -165 147 -70 320 21 412 216 42 87 69 179
98 331 l17 86 72 6 c121 9 240 68 335 167 l46 48 1 -62 c0 -33 4 -78 8 -99 13
-69 121 -165 210 -188 l47 -12 43 17 c54 21 119 76 136 116 7 16 15 30 19 30
4 0 24 -18 46 -40 21 -22 53 -45 71 -50 64 -21 163 26 209 100 14 22 29 40 33
40 5 0 19 -12 33 -26 50 -55 148 -71 217 -35 37 19 126 105 133 128 3 8 19 2
47 -17 113 -76 225 -51 323 72 52 65 136 240 177 368 33 102 59 170 67 170 3
0 -4 -21 -14 -48 -10 -26 -33 -101 -51 -166 -25 -92 -30 -130 -25 -165 l7 -46
61 -60 c34 -33 78 -68 99 -78 48 -23 120 -22 166 2 45 23 98 74 119 116 9 17
17 31 18 33 2 2 17 -10 34 -25 17 -16 56 -44 86 -62 l56 -34 72 -5 c57 -3 84
0 129 18 74 27 155 101 191 172 33 65 29 84 -32 143 -23 21 -41 45 -41 52 0
25 -26 12 -95 -49 -103 -91 -171 -112 -193 -63 -21 46 -16 55 32 55 78 0 238
97 304 183 38 50 62 108 62 152 0 60 -33 119 -103 190 -80 80 -119 94 -215 76
-85 -16 -135 -45 -204 -119 -95 -103 -167 -273 -168 -395 0 -36 -39 -119 -82
-176 l-18 -24 0 24 c0 44 40 190 70 259 17 38 30 84 30 102 l0 35 -58 61 -59
62 -81 0 -80 0 -37 50 c-51 69 -80 90 -127 90 -30 0 -46 -7 -68 -28 -50 -51
-51 -162 -1 -223 l19 -23 -45 -131 c-47 -137 -128 -305 -152 -313 l-14 -5 6
84 c8 106 98 540 138 661 16 51 45 123 64 160 l35 68 -61 71 c-34 39 -76 79
-93 90 -36 22 -81 24 -117 4z m1146 -634 c-8 -39 -59 -115 -90 -135 l-25 -16
21 52 c11 29 27 63 35 75 17 28 56 64 62 59 2 -3 1 -18 -3 -35z m-2758 -107
c15 -4 28 -21 39 -51 l18 -45 -11 -75 c-15 -102 -65 -202 -139 -275 -32 -32
-62 -58 -66 -58 -4 0 -8 8 -8 18 0 23 46 197 65 245 28 70 21 92 -49 163 -35
36 -58 67 -52 69 39 13 167 19 203 9z m1388 -116 c-15 -98 -49 -208 -86 -286
-22 -45 -44 -80 -49 -77 -21 13 -7 121 32 254 16 54 32 85 58 113 20 21 40 38
44 38 4 0 5 -19 1 -42z m-721 -125 c-9 -73 -31 -163 -53 -224 -21 -54 -74
-129 -92 -129 -14 0 0 94 26 175 24 71 104 225 117 225 4 0 5 -21 2 -47z"/>
<path d="M2646 3336 c-79 -30 -133 -87 -122 -130 9 -35 33 -33 73 6 l34 33 75
3 c99 5 174 -10 276 -57 110 -51 128 -56 128 -38 0 20 -152 134 -220 165 -68
32 -184 40 -244 18z"/>
<path d="M4574 2165 c-27 -13 -98 -65 -157 -114 -60 -49 -134 -103 -166 -120
-60 -32 -164 -61 -216 -60 l-30 0 55 18 c80 26 130 54 187 105 l51 46 6 43 c9
59 1 77 -37 77 l-31 0 -85 -88 c-98 -100 -145 -130 -251 -163 l-75 -23 -155
-1 c-85 0 -236 4 -335 9 l-180 8 -95 -20 c-52 -11 -122 -30 -154 -43 -69 -25
-142 -88 -166 -142 l-17 -39 -12 34 c-33 94 -111 156 -209 165 -72 7 -173 -18
-220 -54 -49 -37 -82 -113 -82 -191 0 -74 18 -115 60 -137 48 -25 97 -19 131
14 35 36 37 64 4 96 -29 29 -42 31 -67 8 l-19 -17 -9 14 c-16 25 -11 54 15 92
44 65 185 99 256 63 42 -22 84 -85 110 -163 31 -97 57 -139 97 -158 53 -25
109 -14 150 31 l33 36 -3 36 c-2 25 -11 42 -30 56 l-27 20 -27 -12 c-27 -12
-29 -28 -9 -73 6 -14 2 -18 -17 -18 -40 0 -59 31 -59 93 0 88 42 146 136 188
68 30 222 38 319 15 113 -27 178 -68 258 -164 39 -46 82 -88 96 -93 l27 -10
18 22 c38 48 -10 126 -123 201 l-81 53 58 3 c79 4 217 -12 446 -54 106 -20
237 -38 293 -41 l100 -6 36 17 c42 20 52 46 30 77 l-15 22 -91 -7 c-50 -3
-127 -8 -171 -11 l-80 -5 87 19 c154 34 349 114 475 196 l82 54 6 45 c12 80
-29 97 -121 51z"/>
<path d="M3130 1717 c0 -4 22 -18 48 -31 27 -13 75 -52 107 -85 32 -34 67 -61
77 -61 23 0 41 35 32 63 -18 61 -98 108 -196 115 -38 3 -68 2 -68 -1z"/>
</g>
</svg>
